<svg width="25" height="24" viewBox="0 0 25 24" fill="none" xmlns="http://www.w3.org/2000/svg">
<path d="M24.5049 3.00061C24.5049 2.20496 24.1888 1.4419 23.6262 0.87929C23.0636 0.316681 22.3005 0.000610352 21.5049 0.000610352L9.50488 0.000610352C8.70923 0.000610352 7.94617 0.316681 7.38356 0.87929C6.82095 1.4419 6.50488 2.20496 6.50488 3.00061V11.0006H3.50488C2.70923 11.0006 1.94617 11.3167 1.38356 11.8793C0.820953 12.4419 0.504883 13.205 0.504883 14.0006L0.504883 24.0006H13.5049V18.0006H24.5049V3.00061ZM11.5049 22.0006H2.50488V14.0006C2.50488 13.7354 2.61024 13.481 2.79778 13.2935C2.98531 13.106 3.23967 13.0006 3.50488 13.0006H6.50488V18.0006H11.5049V22.0006ZM11.5049 14.0006V16.0006H8.50488V13.0006H10.5049C10.7701 13.0006 11.0245 13.106 11.212 13.2935C11.3995 13.481 11.5049 13.7354 11.5049 14.0006ZM22.5049 16.0006H13.5049V14.0006C13.5032 13.5551 13.4006 13.1158 13.2049 12.7156L18.5049 7.41561V11.0006H20.5049V4.00061H13.5049V6.00061H17.0909L11.7909 11.3006C11.3904 11.1048 10.9507 11.0022 10.5049 11.0006H8.50488V3.00061C8.50488 2.73539 8.61024 2.48104 8.79778 2.2935C8.98531 2.10597 9.23967 2.00061 9.50488 2.00061H21.5049C21.7701 2.00061 22.0245 2.10597 22.212 2.2935C22.3995 2.48104 22.5049 2.73539 22.5049 3.00061V16.0006Z" fill="black"/>
</svg>
