<svg width="24" height="24" viewBox="0 0 24 24" fill="none" xmlns="http://www.w3.org/2000/svg">
<g clip-path="url(#clip0_1052_19)">
<path d="M13 14.9986H11V14.2556C10.9852 13.55 11.1596 12.8533 11.5049 12.2379C11.8503 11.6224 12.3541 11.1106 12.964 10.7556C13.3335 10.5521 13.6291 10.237 13.8087 9.85533C13.9883 9.47367 14.0427 9.045 13.964 8.63059C13.8861 8.2358 13.6922 7.87319 13.4072 7.58908C13.1222 7.30498 12.759 7.11228 12.364 7.03559C12.0757 6.98224 11.7792 6.99291 11.4955 7.06686C11.2118 7.1408 10.9479 7.27622 10.7223 7.46351C10.4968 7.6508 10.3151 7.88539 10.1903 8.15067C10.0655 8.41594 10.0005 8.70542 9.99999 8.99859H8C8.00025 8.2931 8.18708 7.60022 8.54155 6.99024C8.89602 6.38027 9.40551 5.87489 10.0183 5.52538C10.6312 5.17587 11.3255 4.99466 12.031 5.00013C12.7365 5.0056 13.428 5.19756 14.0353 5.55654C14.6426 5.91551 15.1442 6.42873 15.4892 7.04413C15.8341 7.65953 16.0102 8.35522 15.9995 9.06064C15.9888 9.76605 15.7918 10.4561 15.4283 11.0607C15.0648 11.6654 14.5479 12.1632 13.93 12.5036C13.6347 12.6882 13.3933 12.9473 13.2301 13.2549C13.0668 13.5625 12.9874 13.9076 13 14.2556V14.9986Z" fill="black"/>
<path d="M13 16.9986H11V18.9986H13V16.9986Z" fill="black"/>
<path d="M24 24H12C9.62663 24 7.30655 23.2962 5.33316 21.9776C3.35977 20.6591 1.8217 18.7849 0.913451 16.5922C0.00519943 14.3995 -0.232441 11.9867 0.230582 9.65892C0.693604 7.33115 1.83649 5.19295 3.51472 3.51472C5.19295 1.83649 7.33115 0.693604 9.65892 0.230582C11.9867 -0.232441 14.3995 0.00519943 16.5922 0.913451C18.7849 1.8217 20.6591 3.35977 21.9776 5.33316C23.2962 7.30655 24 9.62663 24 12V24ZM12 2C9.34784 2 6.8043 3.05357 4.92894 4.92894C3.05357 6.8043 2 9.34784 2 12C2 14.6522 3.05357 17.1957 4.92894 19.0711C6.8043 20.9464 9.34784 22 12 22H22V12C21.9971 9.34873 20.9426 6.80688 19.0679 4.93215C17.1931 3.05742 14.6513 2.00292 12 2Z" fill="black"/>
</g>
<defs>
<clipPath id="clip0_1052_19">
<rect width="24" height="24" fill="white"/>
</clipPath>
</defs>
</svg>
