<svg width="25" height="24" viewBox="0 0 25 24" fill="none" xmlns="http://www.w3.org/2000/svg">
<g clip-path="url(#clip0_503_17)">
<path d="M24.5031 22.5873L18.2411 16.3253C19.8677 14.3359 20.6675 11.7974 20.4749 9.23487C20.2824 6.67234 19.1123 4.28184 17.2067 2.55783C15.301 0.833818 12.8057 -0.0917999 10.2367 -0.0275681C7.66777 0.0366637 5.22178 1.08583 3.40469 2.90292C1.5876 4.72001 0.538434 7.166 0.474202 9.73495C0.40997 12.3039 1.33559 14.7993 3.0596 16.7049C4.78361 18.6105 7.17411 19.7806 9.73664 19.9732C12.2992 20.1657 14.8377 19.3659 16.8271 17.7393L23.0891 24.0013L24.5031 22.5873ZM10.5031 18.0013C8.92083 18.0013 7.37411 17.5321 6.05852 16.6531C4.74292 15.774 3.71754 14.5246 3.11204 13.0628C2.50654 11.601 2.34811 9.99243 2.6568 8.44059C2.96548 6.88874 3.7274 5.46327 4.84622 4.34445C5.96504 3.22563 7.39051 2.46371 8.94236 2.15503C10.4942 1.84634 12.1027 2.00477 13.5645 2.61027C15.0264 3.21577 16.2758 4.24115 17.1548 5.55675C18.0339 6.87234 18.5031 8.41906 18.5031 10.0013C18.5007 12.1223 17.6571 14.1558 16.1573 15.6555C14.6575 17.1553 12.6241 17.9989 10.5031 18.0013Z" fill="black"/>
</g>
<defs>
<clipPath id="clip0_503_17">
<rect width="24" height="24" fill="white" transform="translate(0.503296 0.000610352)"/>
</clipPath>
</defs>
</svg>
