<svg width="25" height="24" viewBox="0 0 25 24" fill="none" xmlns="http://www.w3.org/2000/svg">
<path d="M24.4881 24.0006H12.5061C10.1651 23.9995 7.87556 23.3137 5.91945 22.0276C3.96334 20.7415 2.42613 18.9114 1.49714 16.7626C0.568158 14.6138 0.287979 12.2402 0.691116 9.93414C1.09425 7.6281 2.1631 5.49033 3.766 3.78415C5.36891 2.07798 7.43586 0.877902 9.71227 0.331749C11.9887 -0.214405 14.3751 -0.0827852 16.5777 0.710396C18.7802 1.50358 20.7027 2.92368 22.1082 4.79578C23.5138 6.66788 24.341 8.91022 24.4881 11.2466V24.0006ZM12.5061 2.00061C9.85397 2.00061 7.31043 3.05418 5.43507 4.92954C3.5597 6.80491 2.50614 9.34845 2.50614 12.0006C2.50614 14.6528 3.5597 17.1963 5.43507 19.0717C7.31043 20.947 9.85397 22.0006 12.5061 22.0006H22.4881V11.3416C22.3167 8.80993 21.1909 6.43764 19.3381 4.70384C17.4853 2.97004 15.0436 2.00393 12.5061 2.00061Z" fill="black"/>
<path d="M13.4886 7.00047H7.48859V9.00046H13.4886V7.00047Z" fill="black"/>
<path d="M17.4886 11.0008H7.48859V13.0008H17.4886V11.0008Z" fill="black"/>
<path d="M17.4886 15.0006H7.48859V17.0007H17.4886V15.0006Z" fill="black"/>
</svg>
