<svg width="25" height="12" viewBox="0 0 25 12" fill="none" xmlns="http://www.w3.org/2000/svg">
<path d="M18.4882 -0.000915527C15.5162 -0.000915527 13.5452 2.22608 12.4882 3.88108C11.4312 2.22608 9.46016 -0.000915527 6.48816 -0.000915527C4.89686 -0.000915527 3.37074 0.631226 2.24552 1.75644C1.1203 2.88166 0.488159 4.40779 0.488159 5.99908C0.488159 7.59038 1.1203 9.11651 2.24552 10.2417C3.37074 11.3669 4.89686 11.9991 6.48816 11.9991C9.46016 11.9991 11.4312 9.77208 12.4882 8.11708C13.5452 9.77208 15.5162 11.9991 18.4882 11.9991C20.0795 11.9991 21.6056 11.3669 22.7308 10.2417C23.856 9.11651 24.4882 7.59038 24.4882 5.99908C24.4882 4.40779 23.856 2.88166 22.7308 1.75644C21.6056 0.631226 20.0795 -0.000915527 18.4882 -0.000915527ZM6.48816 9.99908C5.42729 9.99908 4.40988 9.57766 3.65973 8.82751C2.90959 8.07737 2.48816 7.05995 2.48816 5.99908C2.48816 4.93822 2.90959 3.9208 3.65973 3.17066C4.40988 2.42051 5.42729 1.99908 6.48816 1.99908C9.18116 1.99908 10.8702 4.94408 11.3882 5.99908C10.8742 7.05908 9.19616 9.99908 6.48816 9.99908ZM18.4882 9.99908C15.7952 9.99908 14.1062 7.05408 13.5882 5.99908C14.1032 4.94108 15.7812 1.99908 18.4882 1.99908C19.549 1.99908 20.5664 2.42051 21.3166 3.17066C22.0667 3.9208 22.4882 4.93822 22.4882 5.99908C22.4882 7.05995 22.0667 8.07737 21.3166 8.82751C20.5664 9.57766 19.549 9.99908 18.4882 9.99908Z" fill="black"/>
</svg>
