<svg width="24" height="24" viewBox="0 0 24 24" fill="none" xmlns="http://www.w3.org/2000/svg">
<path d="M12.9997 14.9996H10.9997V14.2566C10.9849 13.551 11.1593 12.8544 11.5046 12.2389C11.85 11.6235 12.3538 11.1117 12.9637 10.7566C13.3332 10.5531 13.6288 10.238 13.8084 9.85636C13.988 9.4747 14.0424 9.04602 13.9637 8.63162C13.8858 8.23682 13.6919 7.87421 13.4069 7.59011C13.1219 7.30601 12.7587 7.11331 12.3637 7.03662C12.0754 6.98326 11.7789 6.99394 11.4952 7.06788C11.2115 7.14183 10.9476 7.27725 10.722 7.46454C10.4965 7.65183 10.3148 7.88642 10.19 8.1517C10.0652 8.41697 10.0002 8.70645 9.99969 8.99962H7.99969C7.99994 8.29413 8.18678 7.60125 8.54125 6.99127C8.89572 6.38129 9.40521 5.87592 10.018 5.52641C10.6309 5.1769 11.3252 4.99569 12.0307 5.00116C12.7362 5.00663 13.4277 5.19859 14.035 5.55756C14.6423 5.91654 15.1439 6.42976 15.4889 7.04516C15.8338 7.66056 16.0099 8.35625 15.9992 9.06167C15.9885 9.76708 15.7915 10.4571 15.428 11.0618C15.0645 11.6664 14.5476 12.1642 13.9297 12.5046C13.6344 12.6892 13.393 12.9483 13.2298 13.2559C13.0665 13.5635 12.9871 13.9086 12.9997 14.2566V14.9996Z" fill="black"/>
<path d="M12.9997 16.9997H10.9997V18.9997H12.9997V16.9997Z" fill="black"/>
</svg>
