<svg width="25" height="24" viewBox="0 0 25 24" fill="none" xmlns="http://www.w3.org/2000/svg">
<path d="M21.4882 0.000610352H3.48816C2.69251 0.000610352 1.92945 0.316681 1.36684 0.87929C0.80423 1.4419 0.488159 2.20496 0.488159 3.00061L0.488159 24.0006H18.9022L24.4882 18.4146V3.00061C24.4882 2.20496 24.1721 1.4419 23.6095 0.87929C23.0469 0.316681 22.2838 0.000610352 21.4882 0.000610352V0.000610352ZM18.4882 21.5866V18.0006H22.0742L18.4882 21.5866ZM22.4882 16.0006H16.4882V22.0006H2.48816V3.00061C2.48816 2.73539 2.59352 2.48104 2.78105 2.2935C2.96859 2.10597 3.22294 2.00061 3.48816 2.00061H21.4882C21.7534 2.00061 22.0077 2.10597 22.1953 2.2935C22.3828 2.48104 22.4882 2.73539 22.4882 3.00061V16.0006ZM13.2382 5.00061H16.5012V6.25061H14.4882V7.38861H16.3522V8.63861H14.4882V11.0256H13.2382V5.00061ZM5.73816 7.00061V9.06861C5.73695 9.16748 5.75552 9.2656 5.79277 9.35719C5.83003 9.44879 5.88521 9.53201 5.95508 9.60198C6.02495 9.67194 6.1081 9.72724 6.19965 9.76461C6.29119 9.80198 6.38929 9.82068 6.48816 9.81961C6.68381 9.81739 6.87104 9.7397 7.01078 9.60275C7.15053 9.4658 7.23199 9.28017 7.23816 9.08461V9.00061H6.48816V8.00061H8.48816V9.08461C8.48394 9.61227 8.27136 10.1169 7.89675 10.4885C7.52213 10.8601 7.01583 11.0686 6.48816 11.0686C6.22653 11.0698 5.96723 11.0194 5.72509 10.9203C5.48295 10.8212 5.26271 10.6754 5.07696 10.4911C4.89122 10.3069 4.74361 10.0878 4.64258 9.84647C4.54155 9.60513 4.48908 9.34624 4.48816 9.08461V6.98461C4.48908 6.72298 4.54155 6.46409 4.64258 6.22275C4.74361 5.98142 4.89122 5.76236 5.07696 5.5781C5.26271 5.39384 5.48295 5.248 5.72509 5.14891C5.96723 5.04982 6.22653 4.99943 6.48816 5.00061C7.01754 5.00402 7.52427 5.21583 7.89861 5.59016C8.27294 5.9645 8.48475 6.47123 8.48816 7.00061H7.23816C7.23262 6.80345 7.15182 6.61589 7.01235 6.47642C6.87288 6.33695 6.68532 6.25615 6.48816 6.25061C6.38945 6.24967 6.29155 6.26844 6.20019 6.30581C6.10883 6.34318 6.02584 6.39841 5.95609 6.46825C5.88634 6.5381 5.83123 6.62116 5.79398 6.71257C5.75673 6.80398 5.73809 6.90191 5.73916 7.00061H5.73816ZM10.2382 5.00061H11.4882V11.0696H10.2382V5.00061Z" fill="black"/>
</svg>
