<svg width="25" height="24" viewBox="0 0 25 24" fill="none" xmlns="http://www.w3.org/2000/svg">
<path d="M12.466 2.00003C13.7925 2.00438 15.1049 2.27177 16.3274 2.78671C17.5499 3.30166 18.6581 4.05394 19.588 5.00003H15.466V7.00003H20.609C21.1013 6.9995 21.5733 6.80368 21.9215 6.45554C22.2696 6.1074 22.4654 5.63537 22.466 5.14303V2.65394e-05H20.466V3.07803C18.7434 1.52688 16.608 0.508682 14.3184 0.146835C12.0288 -0.215011 9.68338 0.0950335 7.56647 1.03939C5.44955 1.98375 3.652 3.52187 2.3917 5.46732C1.1314 7.41277 0.462458 9.68203 0.465956 12H2.46596C2.46887 9.34876 3.52337 6.80691 5.3981 4.93218C7.27284 3.05744 9.81468 2.00294 12.466 2.00003Z" fill="black"/>
<path d="M22.4659 11.9999C22.4688 13.9853 21.8798 15.9264 20.7742 17.5754C19.6686 19.2244 18.0966 20.5065 16.2589 21.2578C14.4212 22.0091 12.4013 22.1956 10.4571 21.7934C8.51291 21.3912 6.73273 20.4187 5.34392 18.9999H9.46592V16.9999H4.32292C3.83058 17.0005 3.35855 17.1963 3.01041 17.5444C2.66227 17.8926 2.46645 18.3646 2.46592 18.8569V23.9999H4.46592V20.9219C6.18845 22.4731 8.32393 23.4913 10.6135 23.8531C12.9031 24.215 15.2485 23.9049 17.3654 22.9606C19.4823 22.0162 21.2799 20.4781 22.5402 18.5326C23.8005 16.5872 24.4694 14.3179 24.4659 11.9999H22.4659Z" fill="black"/>
</svg>
