<svg width="25" height="24" viewBox="0 0 25 24" fill="none" xmlns="http://www.w3.org/2000/svg">
<path d="M9.41941 16.4824L14.3194 21.3824L15.0264 20.6754C16.0037 19.6948 16.709 18.4766 17.0728 17.1407C17.4366 15.8048 17.4465 14.3973 17.1014 13.0564L16.8554 12.0564L18.9414 9.97045L19.1584 10.1874C19.6637 10.7053 20.335 11.0292 21.0548 11.1023C21.7747 11.1754 22.4973 10.9932 23.0964 10.5874C23.4515 10.3344 23.7472 10.007 23.9629 9.62803C24.1786 9.24906 24.309 8.82762 24.3452 8.39308C24.3814 7.95854 24.3224 7.52133 24.1723 7.11192C24.0223 6.7025 23.7848 6.33071 23.4764 6.02245L18.5514 1.08945C18.0461 0.571546 17.3749 0.24773 16.655 0.174611C15.9352 0.101493 15.2125 0.283724 14.6134 0.689445C14.2583 0.942478 13.9626 1.26988 13.7469 1.64886C13.5313 2.02783 13.4008 2.44927 13.3646 2.88381C13.3284 3.31835 13.3874 3.75556 13.5375 4.16497C13.6875 4.57439 13.925 4.94618 14.2334 5.25445L14.5264 5.54745L12.4364 7.63545L11.4514 7.39345C10.1083 7.04566 8.69773 7.05384 7.35873 7.41717C6.01974 7.78051 4.79851 8.48645 3.81541 9.46545L3.10841 10.1724L8.00841 15.0674L0.644409 22.4284L2.05841 23.8424L9.41941 16.4824ZM10.9584 9.33545L13.0584 9.84945L17.3584 5.54945L15.6444 3.84245C15.5409 3.73915 15.4612 3.6144 15.4112 3.47698C15.3611 3.33957 15.3417 3.19284 15.3545 3.04715C15.3673 2.90145 15.4119 2.76033 15.4851 2.63373C15.5584 2.50713 15.6585 2.39814 15.7784 2.31445C15.9918 2.18527 16.2432 2.13363 16.4902 2.16825C16.7372 2.20286 16.9648 2.3216 17.1344 2.50445L22.0584 7.42845C22.162 7.53174 22.2416 7.6565 22.2917 7.79391C22.3418 7.93132 22.3611 8.07805 22.3483 8.22374C22.3355 8.36944 22.291 8.51056 22.2177 8.63716C22.1445 8.76376 22.0444 8.87275 21.9244 8.95645C21.711 9.08562 21.4596 9.13726 21.2126 9.10264C20.9656 9.06803 20.7381 8.94929 20.5684 8.76645L18.9374 7.13545L14.6374 11.4354L15.1554 13.5464C15.3736 14.3868 15.4061 15.2645 15.2507 16.1187C15.0953 16.9728 14.7556 17.7829 14.2554 18.4924L5.99741 10.2354C6.70909 9.73361 7.52169 9.39309 8.37853 9.23764C9.23537 9.0822 10.1158 9.11558 10.9584 9.33545Z" fill="black"/>
</svg>
