<svg width="25" height="22" viewBox="0 0 25 22" fill="none" xmlns="http://www.w3.org/2000/svg">
<path d="M20.6281 12.2911L19.2141 13.7051L21.5061 15.9981H21.1242C17.7402 15.9981 15.5882 14.4661 13.6782 12.4901L13.3782 12.8381C13.0502 13.2182 12.7122 13.6091 12.3602 14.0021C14.5602 16.5496 17.7622 18.0104 21.1282 18.0021H21.5061L19.2132 20.2951L20.6271 21.7091L23.9202 18.4161C24.7009 17.6351 24.7009 16.3691 23.9202 15.5881L20.6281 12.2911Z" fill="black"/>
<path d="M21.1249 5.99803H21.5059L19.2139 8.29102L20.6279 9.705L23.9209 6.41199C24.7017 5.631 24.7017 4.365 23.9209 3.58397L20.6279 0.290955L19.2139 1.70494L21.5059 3.99806H21.1239C16.167 3.99806 13.4569 6.66806 10.998 9.47606C8.56894 6.73303 5.64891 3.99806 0.465942 3.99806V5.99808C4.92994 5.99808 7.33894 8.3341 9.67496 10.9981C7.33894 13.662 4.92994 15.9981 0.465942 15.9981V17.9981C6.27394 17.9981 9.24193 14.5621 11.8659 11.5321C14.3199 8.68603 16.6429 5.99803 21.1249 5.99803Z" fill="black"/>
</svg>
