<svg width="27" height="26" viewBox="0 0 27 26" fill="none" xmlns="http://www.w3.org/2000/svg">
<path d="M18.9929 1.80963C17.8673 1.82714 16.7663 2.14135 15.801 2.72054C14.8356 3.29972 14.0403 4.12337 13.4951 5.1083C12.95 4.12337 12.1546 3.29972 11.1893 2.72054C10.224 2.14135 9.12293 1.82714 7.99734 1.80963C6.203 1.88759 4.51245 2.67254 3.29501 3.99298C2.07758 5.31343 1.43223 7.06204 1.49996 8.85679C1.49996 15.6291 12.4515 23.4509 12.9173 23.7828L13.4951 24.1916L14.0729 23.7828C14.5387 23.4529 25.4903 15.6291 25.4903 8.85679C25.558 7.06204 24.9127 5.31343 23.6952 3.99298C22.4778 2.67254 20.7872 1.88759 18.9929 1.80963Z" stroke="black" stroke-width="2"/>
</svg>
