<svg width="24" height="23" viewBox="0 0 24 23" fill="none" xmlns="http://www.w3.org/2000/svg">
<path d="M20.9999 0.00305176H2.99994C2.20429 0.00305176 1.44123 0.319122 0.878619 0.881731C0.316009 1.44434 -6.10352e-05 2.2074 -6.10352e-05 3.00305L-6.10352e-05 22.0031H23.9999V3.00305C23.9999 2.2074 23.6839 1.44434 23.1213 0.881731C22.5587 0.319122 21.7956 0.00305176 20.9999 0.00305176V0.00305176ZM2.99994 2.00305H20.9999C21.2652 2.00305 21.5195 2.10841 21.707 2.29594C21.8946 2.48348 21.9999 2.73784 21.9999 3.00305V3.67005L14.1219 11.5491C13.5584 12.1104 12.7954 12.4255 11.9999 12.4255C11.2045 12.4255 10.4415 12.1104 9.87794 11.5491L1.99994 3.67005V3.00305C1.99994 2.73784 2.1053 2.48348 2.29283 2.29594C2.48037 2.10841 2.73472 2.00305 2.99994 2.00305V2.00305ZM1.99994 20.0031V6.50305L8.46394 12.9631C9.40257 13.8993 10.6742 14.4251 11.9999 14.4251C13.3257 14.4251 14.5973 13.8993 15.5359 12.9631L21.9999 6.50305V20.0031H1.99994Z" fill="black"/>
</svg>
