<svg width="24" height="22" viewBox="0 0 24 22" fill="none" xmlns="http://www.w3.org/2000/svg">
<path d="M23.8208 10.181C22.8547 8.08571 21.4396 6.22852 19.6758 4.741L22.7078 1.709L21.2928 0.292999L17.9998 3.583C16.1772 2.52872 14.1053 1.9821 11.9998 2C4.49981 2 1.05681 8.261 0.17881 10.181C0.0609485 10.4383 -6.10352e-05 10.718 -6.10352e-05 11.001C-6.10352e-05 11.284 0.0609485 11.5637 0.17881 11.821C1.14495 13.9163 2.56003 15.7735 4.32381 17.261L1.29281 20.293L2.70681 21.707L5.99981 18.417C7.82245 19.4713 9.8943 20.0179 11.9998 20C19.4998 20 22.9428 13.739 23.8208 11.819C23.9384 11.562 23.9993 11.2827 23.9993 11C23.9993 10.7173 23.9384 10.438 23.8208 10.181ZM1.99981 11.011C2.74981 9.366 5.69281 4 11.9998 4C13.5694 3.99082 15.1185 4.357 16.5178 5.068L14.7528 6.833C13.7927 6.1956 12.6417 5.91 11.495 6.02464C10.3484 6.13929 9.27668 6.64714 8.46181 7.462C7.64695 8.27686 7.13911 9.34856 7.02446 10.4952C6.90981 11.6419 7.19541 12.7929 7.83281 13.753L5.75381 15.832C4.15418 14.5294 2.87068 12.8811 1.99981 11.011ZM14.9998 11C14.9998 11.7956 14.6837 12.5587 14.1211 13.1213C13.5585 13.6839 12.7955 14 11.9998 14C11.5543 13.9983 11.115 13.8957 10.7148 13.7L14.6998 9.715C14.8955 10.1152 14.9981 10.5545 14.9998 11ZM8.99981 11C8.99981 10.2043 9.31588 9.44129 9.87849 8.87868C10.4411 8.31607 11.2042 8 11.9998 8C12.4453 8.00172 12.8846 8.10429 13.2848 8.3L9.29981 12.285C9.1041 11.8848 9.00154 11.4455 8.99981 11ZM11.9998 18C10.4302 18.0092 8.88117 17.643 7.48181 16.932L9.24681 15.167C10.2069 15.8044 11.3579 16.09 12.5046 15.9754C13.6513 15.8607 14.7229 15.3529 15.5378 14.538C16.3527 13.7231 16.8605 12.6514 16.9752 11.5048C17.0898 10.3581 16.8042 9.20707 16.1668 8.247L18.2448 6.169C19.8476 7.47281 21.1318 9.12506 21.9998 11C21.2358 12.657 18.2918 18 11.9998 18Z" fill="black"/>
</svg>
