<svg width="24" height="18" viewBox="0 0 24 18" fill="none" xmlns="http://www.w3.org/2000/svg">
<path d="M23.8208 8.181C22.9428 6.261 19.4998 0 11.9998 0C4.49981 0 1.05681 6.261 0.17881 8.181C0.0609485 8.4383 -6.10352e-05 8.71799 -6.10352e-05 9.001C-6.10352e-05 9.28401 0.0609485 9.5637 0.17881 9.821C1.05681 11.739 4.49981 18 11.9998 18C19.4998 18 22.9428 11.739 23.8208 9.819C23.9384 9.56199 23.9993 9.28265 23.9993 9C23.9993 8.71735 23.9384 8.43801 23.8208 8.181ZM11.9998 16C5.69281 16 2.74981 10.634 1.99981 9.011C2.74981 7.366 5.69281 2 11.9998 2C18.2918 2 21.2358 7.343 21.9998 9C21.2358 10.657 18.2918 16 11.9998 16Z" fill="black"/>
<path d="M11.9998 4.00031C11.0109 4.00031 10.0442 4.29356 9.22193 4.84296C8.39968 5.39237 7.75882 6.17327 7.38038 7.0869C7.00195 8.00053 6.90293 9.00586 7.09585 9.97577C7.28878 10.9457 7.76498 11.8366 8.46425 12.5358C9.16351 13.2351 10.0544 13.7113 11.0243 13.9042C11.9942 14.0972 12.9996 13.9981 13.9132 13.6197C14.8268 13.2413 15.6077 12.6004 16.1571 11.7782C16.7065 10.9559 16.9998 9.98922 16.9998 9.00031C16.9982 7.67472 16.4709 6.40387 15.5336 5.46653C14.5962 4.52919 13.3254 4.0019 11.9998 4.00031ZM11.9998 12.0003C11.4064 12.0003 10.8264 11.8244 10.3331 11.4947C9.83972 11.1651 9.4552 10.6965 9.22814 10.1484C9.00108 9.60019 8.94167 8.99699 9.05742 8.41504C9.17318 7.8331 9.4589 7.29855 9.87846 6.87899C10.298 6.45943 10.8326 6.17371 11.4145 6.05796C11.9965 5.9422 12.5997 6.00161 13.1478 6.22867C13.696 6.45574 14.1645 6.84025 14.4942 7.3336C14.8238 7.82695 14.9998 8.40697 14.9998 9.00031C14.9998 9.79596 14.6837 10.559 14.1211 11.1216C13.5585 11.6842 12.7954 12.0003 11.9998 12.0003Z" fill="black"/>
</svg>
