<svg width="25" height="24" viewBox="0 0 25 24" fill="none" xmlns="http://www.w3.org/2000/svg">
<path d="M21.5065 0H3.50647C2.71082 0 1.94776 0.31607 1.38515 0.87868C0.82254 1.44129 0.50647 2.20435 0.50647 3V24H24.5065V3C24.5065 2.20435 24.1904 1.44129 23.6278 0.87868C23.0652 0.31607 22.3021 0 21.5065 0ZM3.50647 2H21.5065C21.7717 2 22.026 2.10536 22.2136 2.29289C22.4011 2.48043 22.5065 2.73478 22.5065 3V20.586L11.6275 9.707C11.0649 9.14459 10.302 8.82864 9.50647 8.82864C8.71098 8.82864 7.94805 9.14459 7.38547 9.707L2.50647 14.586V3C2.50647 2.73478 2.61183 2.48043 2.79936 2.29289C2.9869 2.10536 3.24125 2 3.50647 2ZM2.50647 17.414L8.79947 11.121C8.987 10.9335 9.24131 10.8282 9.50647 10.8282C9.77163 10.8282 10.0259 10.9335 10.2135 11.121L21.0925 22H2.50647V17.414Z" fill="black"/>
<path d="M16.5063 9.99935C17.0997 9.99935 17.6797 9.82341 18.173 9.49376C18.6664 9.16412 19.0509 8.69558 19.278 8.1474C19.505 7.59923 19.5644 6.99603 19.4487 6.41408C19.3329 5.83214 19.0472 5.29759 18.6276 4.87803C18.2081 4.45848 17.6735 4.17275 17.0916 4.057C16.5097 3.94124 15.9065 4.00065 15.3583 4.22771C14.8101 4.45478 14.3416 4.83929 14.0119 5.33264C13.6823 5.82599 13.5063 6.40601 13.5063 6.99935C13.5063 7.795 13.8224 8.55806 14.385 9.12067C14.9476 9.68328 15.7107 9.99935 16.5063 9.99935ZM16.5063 5.99935C16.7041 5.99935 16.8974 6.058 17.0619 6.16788C17.2263 6.27776 17.3545 6.43394 17.4302 6.61667C17.5059 6.7994 17.5257 7.00046 17.4871 7.19444C17.4485 7.38842 17.3533 7.56661 17.2134 7.70646C17.0736 7.84631 16.8954 7.94155 16.7014 7.98014C16.5074 8.01872 16.3064 7.99892 16.1236 7.92323C15.9409 7.84754 15.7847 7.71937 15.6749 7.55492C15.565 7.39047 15.5063 7.19713 15.5063 6.99935C15.5063 6.73414 15.6117 6.47978 15.7992 6.29225C15.9868 6.10471 16.2411 5.99935 16.5063 5.99935Z" fill="black"/>
</svg>
