<svg width="25" height="24" viewBox="0 0 25 24" fill="none" xmlns="http://www.w3.org/2000/svg">
<path d="M18.5033 13.0006V11.0006C18.5033 10.4702 18.2926 9.96148 17.9175 9.58641C17.5424 9.21133 17.0337 9.00062 16.5033 9.00062H0.503296V15.0006H16.5033C17.0337 15.0006 17.5424 14.7899 17.9175 14.4148C18.2926 14.0398 18.5033 13.5311 18.5033 13.0006Z" fill="black"/>
<path d="M24.5033 22.0006V20.0006C24.5033 19.4702 24.2926 18.9615 23.9175 18.5864C23.5424 18.2113 23.0337 18.0006 22.5033 18.0006H0.503304V24.0006H22.5033C23.0337 24.0006 23.5424 23.7899 23.9175 23.4148C24.2926 23.0398 24.5033 22.5311 24.5033 22.0006Z" fill="black"/>
<path d="M12.5033 4.00061V2.00061C12.5033 1.47018 12.2926 0.96147 11.9175 0.586397C11.5424 0.211324 11.0337 0.000610352 10.5033 0.000610352H0.503296V6.00061H10.5033C11.0337 6.00061 11.5424 5.7899 11.9175 5.41482C12.2926 5.03975 12.5033 4.53104 12.5033 4.00061Z" fill="black"/>
</svg>
